<svg width="67" height="103" viewBox="0 0 67 103" fill="none" xmlns="http://www.w3.org/2000/svg">
<g filter="url(#filter0_d_5_28)">
<path d="M43.9091 15H57.5455L42.1818 61.5455H24.9091L9.54545 15H23.1818L33.3636 48.7273H33.7273L43.9091 15ZM46.4545 33.3636L20.8182 33.3636V23.9091L46.4545 23.9091V33.3636Z" fill="#0C0C0C"/>
<path d="M43.9091 15V13H42.4237L41.9944 14.422L43.9091 15ZM57.5455 15L59.4447 15.6269L60.3117 13H57.5455V15ZM42.1818 61.5455V63.5455H43.6278L44.081 62.1723L42.1818 61.5455ZM24.9091 61.5455L23.0099 62.1723L23.4631 63.5455H24.9091V61.5455ZM9.54545 15V13H6.77916L7.64624 15.6269L9.54545 15ZM23.1818 15L25.0965 14.422L24.6672 13H23.1818V15ZM33.3636 48.7273L31.449 49.3053L31.8783 50.7273H33.3636V48.7273ZM33.7273 48.7273V50.7273H35.2126L35.6419 49.3053L33.7273 48.7273ZM46.4545 33.3636V35.3636H48.4545V33.3636H46.4545ZM20.8182 33.3636H18.8182V35.3636H20.8182V33.3636ZM20.8182 23.9091V21.9091H18.8182V23.9091H20.8182ZM46.4545 23.9091H48.4545V21.9091H46.4545V23.9091ZM43.9091 17H57.5455V13H43.9091V17ZM55.6462 14.3731L40.2826 60.9186L44.081 62.1723L59.4447 15.6269L55.6462 14.3731ZM42.1818 59.5455H24.9091V63.5455H42.1818V59.5455ZM26.8083 60.9186L11.4447 14.3731L7.64624 15.6269L23.0099 62.1723L26.8083 60.9186ZM9.54545 17H23.1818V13H9.54545V17ZM21.2672 15.578L31.449 49.3053L35.2783 48.1493L25.0965 14.422L21.2672 15.578ZM33.3636 50.7273H33.7273V46.7273H33.3636V50.7273ZM35.6419 49.3053L45.8237 15.578L41.9944 14.422L31.8126 48.1493L35.6419 49.3053ZM46.4545 31.3636L20.8182 31.3636V35.3636L46.4545 35.3636V31.3636ZM22.8182 33.3636V23.9091H18.8182V33.3636H22.8182ZM20.8182 25.9091L46.4545 25.9091V21.9091L20.8182 21.9091V25.9091ZM44.4545 23.9091V33.3636H48.4545V23.9091H44.4545Z" fill="white"/>
</g>
<line x1="23.5" y1="63" x2="23.5" y2="87" stroke="white"/>
<line x1="8.5" y1="13" x2="8.5" y2="77" stroke="white"/>
<line x1="17.5" y1="43" x2="17.5" y2="103" stroke="white"/>
<line x1="50.5" y1="43" x2="50.5" y2="73" stroke="white"/>
<line x1="59.5" y1="13" x2="59.5" y2="87" stroke="white"/>
<line x1="38.5" y1="63" x2="38.5" y2="83" stroke="white"/>
<defs>
<filter id="filter0_d_5_28" x="0.545456" y="6" width="66" height="64.5455" filterUnits="userSpaceOnUse" color-interpolation-filters="sRGB">
<feFlood flood-opacity="0" result="BackgroundImageFix"/>
<feColorMatrix in="SourceAlpha" type="matrix" values="0 0 0 0 0 0 0 0 0 0 0 0 0 0 0 0 0 0 127 0" result="hardAlpha"/>
<feOffset/>
<feGaussianBlur stdDeviation="4.5"/>
<feComposite in2="hardAlpha" operator="out"/>
<feColorMatrix type="matrix" values="0 0 0 0 0.5 0 0 0 0 0 0 0 0 0 0 0 0 0 1 0"/>
<feBlend mode="normal" in2="BackgroundImageFix" result="effect1_dropShadow_5_28"/>
<feBlend mode="normal" in="SourceGraphic" in2="effect1_dropShadow_5_28" result="shape"/>
</filter>
</defs>
</svg>
